<?xml version="1.0" encoding="UTF-8" standalone="no"?>
<!-- Generator: Adobe Illustrator 18.1.0, SVG Export Plug-In . SVG Version: 6.00 Build 0)  -->

<svg
   version="1.1"
   id="Ebene_1"
   x="0px"
   y="0px"
   viewBox="0 0 216.19999 198.60001"
   enable-background="new 0 0 841.9 595.3"
   xml:space="preserve"
   sodipodi:docname="Logo-zammad.svg"
   width="216.2"
   height="198.60001"
   inkscape:version="1.1.1 (3bf5ae0d25, 2021-09-20)"
   xmlns:inkscape="http://www.inkscape.org/namespaces/inkscape"
   xmlns:sodipodi="http://sodipodi.sourceforge.net/DTD/sodipodi-0.dtd"
   xmlns="http://www.w3.org/2000/svg"
   xmlns:svg="http://www.w3.org/2000/svg"><defs
   id="defs167" /><sodipodi:namedview
   id="namedview165"
   pagecolor="#505050"
   bordercolor="#eeeeee"
   borderopacity="1"
   inkscape:pageshadow="0"
   inkscape:pageopacity="0"
   inkscape:pagecheckerboard="0"
   showgrid="false"
   fit-margin-top="20"
   fit-margin-left="20"
   fit-margin-right="20"
   fit-margin-bottom="20"
   lock-margins="true"
   inkscape:zoom="1.2436156"
   inkscape:cx="331.69413"
   inkscape:cy="123.43042"
   inkscape:window-width="1892"
   inkscape:window-height="1022"
   inkscape:window-x="12"
   inkscape:window-y="42"
   inkscape:window-maximized="1"
   inkscape:current-layer="g162" />
<g
   id="g162"
   transform="translate(-89.7,-174.8)">
	
	<g
   id="g160">
		<polygon
   fill="#ca2317"
   points="272.2,237.2 247.5,252.9 230.5,250 "
   id="polygon126" />
		<polygon
   fill="#e84f83"
   points="255.9,281.2 247.5,252.9 272.2,237.2 264.8,262.6 "
   id="polygon128" />
		<polygon
   fill="#ca2317"
   points="284.4,229.5 279.8,237.2 264.8,262.6 272.2,237.2 "
   id="polygon130" />
		<polygon
   fill="#e54011"
   points="274.3,246.4 279.8,237.2 285.9,234.5 "
   id="polygon132" />
		<polygon
   fill="#e54011"
   points="267.1,238.7 243.4,246 233,242.1 "
   id="polygon134" />
		<polygon
   fill="#ca2317"
   points="234.3,261.4 247.5,252.9 255.9,281.2 251.5,290.2 "
   id="polygon136" />
		<polygon
   fill="#b7dff2"
   points="208.3,218 251.5,290.2 214.6,295 "
   id="polygon138" />
		<polygon
   fill="#e54011"
   points="214.6,295 251.5,290.2 196.7,314.7 "
   id="polygon140" />
		<polygon
   fill="#ffce33"
   points="109.7,353.4 196.7,314.7 214.6,295 186.2,292.1 "
   id="polygon142" />
		<polygon
   fill="#d6b12d"
   points="113,321.8 157.7,315 171.6,303.8 164.8,300.8 "
   id="polygon144" />
		<polygon
   fill="#ffde85"
   points="171.6,303.8 186.2,292.1 129.1,285.3 "
   id="polygon146" />
		<polygon
   fill="#009ec6"
   points="205.1,245.9 199.7,246.8 186.2,292.1 200.8,282.9 "
   id="polygon148" />
		<polygon
   fill="#5eafce"
   points="200.8,282.9 208.3,218 213,275.1 "
   id="polygon150" />
		<polygon
   fill="#045972"
   points="205.1,245.9 206.8,230.8 166.9,252 "
   id="polygon152" />
		<polygon
   fill="#5a8591"
   points="162.8,216.6 196,236.6 206.8,230.8 207.1,228.7 "
   id="polygon154" />
		<polygon
   fill="#009ec6"
   points="169.3,194.8 199.5,226.6 207.1,228.7 208.3,218 "
   id="polygon156" />
		<polygon
   fill="#f39804"
   points="213,275.1 214.6,295 186.2,292.1 "
   id="polygon158" />
	</g>
</g>
</svg>
